HIERARCHY
ROOT Hips
{
	OFFSET 0.000000 0.000000 0.000000
	CHANNELS 6 Xposition Yposition Zposition Xrotation Yrotation Zrotation
	JOINT Spine
	{
		OFFSET 0.000000 0.044490 0.066735
		CHANNELS 3 Xrotation Yrotation Zrotation
		JOINT Spine1
		{
			OFFSET 0.000000 0.015451 0.087628
			CHANNELS 3 Xrotation Yrotation Zrotation
			JOINT Spine2
			{
				OFFSET 0.000000 0.007755 0.088641
				CHANNELS 3 Xrotation Yrotation Zrotation
				JOINT Spine3
				{
					OFFSET 0.000000 0.000000 0.088980
					CHANNELS 3 Xrotation Yrotation Zrotation
					JOINT Neck
					{
						OFFSET 0.000000 -0.033367 0.233572
						CHANNELS 3 Xrotation Yrotation Zrotation
						JOINT Head
						{
							OFFSET 0.000000 -0.021245 0.120488
							CHANNELS 3 Xrotation Yrotation Zrotation
							End Site
							{
								OFFSET 0.000000 0.000000 0.000000
							}
						}
					}
					JOINT RightShoulder
					{
						OFFSET -0.026917 -0.044862 0.145355
						CHANNELS 3 Xrotation Yrotation Zrotation
						JOINT RightArm
						{
							OFFSET -0.133690 0.000000 0.000000
							CHANNELS 3 Xrotation Yrotation Zrotation
							JOINT RightForeArm
							{
								OFFSET -0.257725 0.000000 0.000000
								CHANNELS 3 Xrotation Yrotation Zrotation
								JOINT RightHand
								{
									OFFSET -0.216749 0.000000 0.000000
									CHANNELS 3 Xrotation Yrotation Zrotation
									JOINT RightHandEnd
									{
										OFFSET -0.062518 0.000000 0.000000
										CHANNELS 3 Xrotation Yrotation Zrotation
										End Site
										{
											OFFSET 0.000000 0.000000 0.000000
										}
									}
									JOINT RightHandThumb1
									{
										OFFSET -0.025007 -0.041679 -0.016672
										CHANNELS 3 Xrotation Yrotation Zrotation
										End Site
										{
											OFFSET 0.000000 0.000000 0.000000
										}
									}
								}
							}
						}
					}
					JOINT LeftShoulder
					{
						OFFSET 0.026917 -0.044862 0.145355
						CHANNELS 3 Xrotation Yrotation Zrotation
						JOINT LeftArm
						{
							OFFSET 0.133690 0.000000 0.000000
							CHANNELS 3 Xrotation Yrotation Zrotation
							JOINT LeftForeArm
							{
								OFFSET 0.257725 0.000000 0.000000
								CHANNELS 3 Xrotation Yrotation Zrotation
								JOINT LeftHand
								{
									OFFSET 0.216749 0.000000 0.000000
									CHANNELS 3 Xrotation Yrotation Zrotation
									JOINT LeftHandEnd
									{
										OFFSET 0.062518 0.000000 0.000000
										CHANNELS 3 Xrotation Yrotation Zrotation
										End Site
										{
											OFFSET 0.000000 0.000000 0.000000
										}
									}
									JOINT LeftHandThumb1
									{
										OFFSET 0.025007 -0.041679 -0.016672
										CHANNELS 3 Xrotation Yrotation Zrotation
										End Site
										{
											OFFSET 0.000000 0.000000 0.000000
										}
									}
								}
							}
						}
					}
				}
			}
		}
	}
	JOINT RightUpLeg
	{
		OFFSET -0.079855 0.000000 -0.023329
		CHANNELS 3 Xrotation Yrotation Zrotation
		JOINT RightLeg
		{
			OFFSET 0.000000 0.000000 -0.366572
			CHANNELS 3 Xrotation Yrotation Zrotation
			JOINT RightFoot
			{
				OFFSET 0.000000 0.000000 -0.363650
				CHANNELS 3 Xrotation Yrotation Zrotation
				JOINT RightToeBase
				{
					OFFSET 0.000000 -0.114715 -0.041753
					CHANNELS 3 Xrotation Yrotation Zrotation
					End Site
					{
						OFFSET 0.000000 0.000000 0.000000
					}
				}
			}
		}
	}
	JOINT LeftUpLeg
	{
		OFFSET 0.079855 0.000000 -0.023329
		CHANNELS 3 Xrotation Yrotation Zrotation
		JOINT LeftLeg
		{
			OFFSET 0.000000 0.000000 -0.366572
			CHANNELS 3 Xrotation Yrotation Zrotation
			JOINT LeftFoot
			{
				OFFSET 0.000000 0.000000 -0.363650
				CHANNELS 3 Xrotation Yrotation Zrotation
				JOINT LeftToeBase
				{
					OFFSET 0.000000 -0.114715 -0.041753
					CHANNELS 3 Xrotation Yrotation Zrotation
					End Site
					{
						OFFSET 0.000000 0.000000 0.000000
					}
				}
			}
		}
	}
}
MOTION
Frames: 8
Frame Time: 0.033333
0.356238 -0.513420 0.808256 2.097500 -2.484000 -93.947900 -1.298200 -0.808100 0.021100 -1.027400 -0.904300 -0.147600 0.525700 -0.392600 -1.574000 0.075500 0.315700 -0.475600 -3.749500 1.253000 -1.352400 2.977100 -1.703100 -1.671800 -2.027400 10.116600 2.785200 -8.940400 -5.847600 -8.969800 0.000000 0.000000 1.501000 1.541400 19.013000 -8.743400 0.000000 0.000000 0.000000 0.000000 0.000000 0.000000 -2.451700 -11.743600 -3.117100 -3.788600 11.879400 18.469000 0.000000 0.000000 -10.296200 -4.074700 -3.137500 1.373700 0.000000 0.000000 0.000000 0.000000 0.000000 0.000000 1.584200 0.192900 -5.670100 -3.872100 0.000000 0.000000 -3.191200 -4.177100 -14.668400 2.551100 0.000000 0.000000 -1.021400 -4.889800 30.613600 0.450300 0.000000 0.000000 -0.799700 3.234900 4.265600 0.478000 0.000000 0.000000 
0.356319 -0.513166 0.808269 2.119600 -2.523200 -94.040800 -1.286400 -0.816000 0.040100 -1.022600 -0.912900 -0.146100 0.540000 -0.395500 -1.581000 0.073300 0.318500 -0.472100 -3.760600 1.267800 -1.361500 2.969000 -1.751500 -1.658600 -2.021400 10.188800 2.802500 -8.921300 -5.957200 -8.970700 0.000000 0.000000 1.517700 1.550200 19.028900 -8.755600 0.000000 0.000000 0.000000 0.000000 0.000000 0.000000 -2.438500 -11.756800 -3.130300 -3.827100 11.922200 18.479200 0.000000 0.000000 -10.253500 -4.067700 -3.091000 1.382100 0.000000 0.000000 0.000000 0.000000 0.000000 0.000000 1.459100 0.142000 -6.014900 -3.733600 0.000000 0.000000 -3.210000 -4.201400 -14.231500 2.556600 0.000000 0.000000 -1.191500 -5.015400 30.826400 0.778500 0.000000 0.000000 -0.943000 3.206900 4.153000 0.438500 0.000000 0.000000 
0.356446 -0.512740 0.808264 2.153900 -2.596800 -94.171900 -1.272500 -0.827200 0.072600 -1.010800 -0.930000 -0.144700 0.535100 -0.379800 -1.596000 0.068100 0.331600 -0.482000 -3.740300 1.234400 -1.374600 2.967000 -1.795200 -1.621900 -2.006500 10.256700 2.849200 -8.921800 -6.112500 -8.968500 0.000000 0.000000 1.522100 1.572900 19.067000 -8.753000 0.000000 0.000000 0.000000 0.000000 0.000000 0.000000 -2.453400 -11.809900 -3.152400 -3.778100 12.030900 18.480600 0.000000 0.000000 -10.196100 -4.051900 -3.082200 1.398800 0.000000 0.000000 0.000000 0.000000 0.000000 0.000000 1.257500 0.058400 -6.635800 -3.526300 0.000000 0.000000 -3.236300 -4.245200 -13.483500 2.532800 0.000000 0.000000 -1.489100 -5.228700 31.097200 1.333100 0.000000 0.000000 -1.181700 3.170500 4.028300 0.372700 0.000000 0.000000 
0.356527 -0.512275 0.808246 2.182900 -2.667900 -94.275200 -1.257800 -0.836600 0.110800 -0.993200 -0.952700 -0.143500 0.513600 -0.334300 -1.608900 0.061400 0.349600 -0.503500 -3.685300 1.178500 -1.399600 2.961500 -1.834400 -1.601300 -1.977500 10.292100 2.884100 -8.970900 -6.252100 -8.964600 0.000000 0.000000 1.518300 1.621100 19.094300 -8.751300 0.000000 0.000000 0.000000 0.000000 0.000000 0.000000 -2.479700 -11.884700 -3.182200 -3.619600 12.171400 18.444100 0.000000 0.000000 -10.166200 -4.032800 -3.111500 1.392800 0.000000 0.000000 0.000000 0.000000 0.000000 0.000000 1.089800 -0.022000 -7.276100 -3.365500 0.000000 0.000000 -3.253200 -4.294600 -12.746700 2.506000 0.000000 0.000000 -1.803300 -5.451300 31.259300 1.930400 0.000000 0.000000 -1.444300 3.138200 3.985400 0.330600 0.000000 0.000000 
0.356530 -0.511858 0.808228 2.204900 -2.710100 -94.334600 -1.237600 -0.844000 0.143600 -0.974900 -0.971400 -0.141100 0.497200 -0.289500 -1.602100 0.056500 0.366200 -0.519700 -3.620400 1.176000 -1.438100 2.934400 -1.913000 -1.638400 -1.943300 10.335200 2.883600 -9.048300 -6.370700 -8.975500 0.000000 0.000000 1.519900 1.654900 19.101200 -8.773300 0.000000 0.000000 0.000000 0.000000 0.000000 0.000000 -2.500500 -11.939900 -3.236300 -3.440900 12.279800 18.385600 0.000000 0.000000 -10.178300 -4.021500 -3.111800 1.355300 0.000000 0.000000 0.000000 0.000000 0.000000 0.000000 1.013900 -0.086700 -7.687200 -3.305300 0.000000 0.000000 -3.252000 -4.329500 -12.287900 2.524700 0.000000 0.000000 -2.056900 -5.639600 31.271900 2.449400 0.000000 0.000000 -1.682200 3.114700 4.039200 0.332900 0.000000 0.000000 
0.356489 -0.511490 0.808213 2.229400 -2.731200 -94.393700 -1.213300 -0.851800 0.165600 -0.954400 -0.979200 -0.137200 0.494700 -0.275200 -1.572200 0.053300 0.377900 -0.517400 -3.566200 1.249600 -1.477700 2.901000 -2.043100 -1.717800 -1.913400 10.419500 2.875700 -9.104100 -6.489000 -8.997500 0.000000 0.000000 1.518100 1.634200 19.103500 -8.808400 0.000000 0.000000 0.000000 0.000000 0.000000 0.000000 -2.517300 -11.959200 -3.311600 -3.339100 12.323900 18.344100 0.000000 0.000000 -10.203500 -4.024200 -3.062100 1.317100 0.000000 0.000000 0.000000 0.000000 0.000000 0.000000 0.984600 -0.146600 -7.868000 -3.288500 0.000000 0.000000 -3.244800 -4.343600 -12.063800 2.566200 0.000000 0.000000 -2.248400 -5.804000 31.222600 2.881700 0.000000 0.000000 -1.882500 3.110700 4.144900 0.346400 0.000000 0.000000 
0.356418 -0.511137 0.808200 2.258300 -2.743700 -94.480100 -1.187100 -0.859100 0.180500 -0.934700 -0.980900 -0.133500 0.497800 -0.276600 -1.537500 0.051400 0.386100 -0.507000 -3.524600 1.331100 -1.504800 2.903500 -2.165000 -1.784400 -1.888500 10.504300 2.896000 -9.104700 -6.584900 -9.000500 0.000000 0.000000 1.508800 1.615700 19.085400 -8.843500 0.000000 0.000000 0.000000 0.000000 0.000000 0.000000 -2.531000 -11.973600 -3.367600 -3.317800 12.324700 18.327400 0.000000 0.000000 -10.214300 -4.038800 -3.025600 1.303200 0.000000 0.000000 0.000000 0.000000 0.000000 0.000000 0.951300 -0.206000 -7.961000 -3.248700 0.000000 0.000000 -3.248600 -4.348900 -11.894600 2.540500 0.000000 0.000000 -2.383700 -5.949500 31.184100 3.222800 0.000000 0.000000 -2.038500 3.130900 4.269200 0.339900 0.000000 0.000000 
0.356288 -0.510822 0.808195 2.280000 -2.758500 -94.569400 -1.173400 -0.860100 0.191600 -0.925000 -0.987200 -0.131600 0.506400 -0.258900 -1.514100 0.051600 0.391900 -0.508500 -3.488000 1.358800 -1.518400 2.945400 -2.222800 -1.820900 -1.863100 10.531600 2.935300 -9.059400 -6.613100 -8.962700 0.000000 0.000000 1.510400 1.663500 19.039300 -8.876500 0.000000 0.000000 0.000000 0.000000 0.000000 0.000000 -2.537800 -12.015400 -3.377000 -3.315800 12.316900 18.314800 0.000000 0.000000 -10.219000 -4.043600 -3.051400 1.315500 0.000000 0.000000 0.000000 0.000000 0.000000 0.000000 0.908700 -0.252400 -8.029800 -3.188800 0.000000 0.000000 -3.265500 -4.351400 -11.735900 2.419400 0.000000 0.000000 -2.463000 -6.052100 31.150600 3.438200 0.000000 0.000000 -2.143400 3.156400 4.402200 0.321100 0.000000 0.000000 
